<svg xmlns="http://www.w3.org/2000/svg" viewBox="0 0 602.25 625.94"><defs><style>.cls-1,.cls-5{fill:none;stroke-miterlimit:10;}.cls-1{stroke:#221e1f;stroke-width:92px;}.cls-2{font-size:54px;}.cls-2,.cls-3,.cls-4{fill:#fff;}.cls-2,.cls-3{font-family:Bungee-Regular, Bungee;}.cls-3{font-size:57px;}.cls-5{stroke:red;stroke-width:9px;}</style></defs><title>sportsball-logo</title><g id="Layer_2" data-name="Layer 2"><g id="Layer_1-2" data-name="Layer 1"><path class="cls-1" d="M556.25,301.13C556.25,442,442,556.25,301.13,556.25S46,442,46,301.13"/><path class="cls-1" d="M46,301.13C46,160.22,160.22,46,301.13,46S556.25,160.22,556.25,301.13"/><text class="cls-2" transform="translate(71.17 296.87) rotate(-84.05) scale(0.99 1)">N</text><text class="cls-2" transform="matrix(0.28, -0.96, 0.96, 0.28, 75.66, 255.33)">A</text><text class="cls-2" transform="translate(86.48 218.3) rotate(-64.78) scale(0.99 1)">T</text><text class="cls-2" transform="matrix(0.56, -0.82, 0.83, 0.56, 102.35, 185.13)">I</text><text class="cls-2" transform="matrix(0.68, -0.72, 0.73, 0.69, 121.22, 156.85)">O</text><text class="cls-2" transform="translate(149.32 127.1) rotate(-36.51) scale(0.99 1)">N</text><text class="cls-2" transform="translate(183 102.38) rotate(-26.22) scale(0.99 1)">A</text><text class="cls-2" transform="matrix(0.95, -0.28, 0.28, 0.96, 219.5, 84.62)">L</text><text class="cls-2" transform="translate(256.79 74.61) rotate(-9.64) scale(0.99 1)"> </text><text class="cls-2" transform="translate(270.54 71.74) rotate(-3.26) scale(0.99 1)">S</text><text class="cls-2" transform="translate(306.86 69.72) rotate(5.97) scale(0.99 1)">P</text><text class="cls-2" transform="translate(344.69 73.66) rotate(15.93) scale(0.99 1)">O</text><text class="cls-2" transform="matrix(0.89, 0.44, -0.44, 0.9, 384, 84.99)">R</text><text class="cls-2" transform="matrix(0.81, 0.58, -0.58, 0.81, 419.55, 102.76)">T</text><text class="cls-2" transform="matrix(0.71, 0.7, -0.7, 0.71, 449.34, 124.28)">S</text><text class="cls-2" transform="translate(475.21 149.83) rotate(54.18) scale(0.99 1)">B</text><text class="cls-2" transform="translate(498.72 182.59) rotate(64.2) scale(0.99 1)">A</text><text class="cls-2" transform="translate(516.21 219.24) rotate(74.05) scale(0.99 1)">L</text><text class="cls-2" transform="translate(526.74 256.54) rotate(83.64) scale(0.99 1)">L</text><text class="cls-3" transform="translate(60.48 428.59) rotate(57.97)">A</text><text class="cls-3" transform="matrix(0.69, 0.72, -0.72, 0.69, 93.14, 477.09)">S</text><text class="cls-3" transform="translate(130.81 514.17) rotate(35.11)">S</text><text class="cls-3" transform="translate(176.04 544.09) rotate(23.1)">O</text><text class="cls-3" transform="matrix(0.98, 0.19, -0.19, 0.98, 231.19, 565.32)">C</text><text class="cls-3" transform="translate(281.44 573.58) rotate(0.94)">I</text><text class="cls-3" transform="translate(333.06 572.81) rotate(-11.14)">A</text><text class="cls-3" transform="matrix(0.92, -0.38, 0.38, 0.92, 387.53, 560.4)">T</text><text class="cls-3" transform="matrix(0.83, -0.55, 0.55, 0.83, 436.13, 538.34)">I</text><text class="cls-3" transform="translate(477.93 508.97) rotate(-45.14)">O</text><text class="cls-3" transform="matrix(0.53, -0.85, 0.85, 0.53, 518.8, 465.17)">N</text><circle class="cls-4" cx="53.25" cy="356.38" r="12"/><circle class="cls-4" cx="546.25" cy="356.38" r="12"/><path class="cls-4" d="M175.84,430.28c223.5,44.5,290-127.5,252.75-254.25L426.41,172c-223.5-44.5-290,127.5-252.75,254.25Z"/><path class="cls-5" d="M302.08,170.88c7.79,70.12,60.83,122.5,129.6,128.5"/><path class="cls-5" d="M171,301.13C249.58,312.38,291.58,359,297.67,431.46"/><line class="cls-5" x1="218.05" y1="216.67" x2="385.33" y2="384.45"/><line class="cls-5" x1="175.84" y1="430.28" x2="426.41" y2="171.97"/><path class="cls-4" d="M202.82,109.07v-1.39h-1.39Q201.3,109.2,202.82,109.07Z"/><path class="cls-4" d="M239,543.69c1.93.44.09-1.39,0,0Z"/><path class="cls-4" d="M214.89,552h.93v-.93h-.93Z"/><path class="cls-4" d="M266.9,526.51c.29,0,.55.07.46.46h.93C269,525.83,266.72,525.61,266.9,526.51Z"/><path class="cls-4" d="M292.91,585.48Z"/><path class="cls-4" d="M253,573.41c1.93.44.09-1.39,0,0Z"/><path class="cls-4" d="M264.12,532.08c1.93.44.09-1.39,0,0Z"/><path class="cls-4" d="M82.08,448v-1.39H80.69Q80.27,448.45,82.08,448Z"/><path class="cls-4" d="M81.62,178.25c1.92.45.09-1.39,0,0Z"/><path class="cls-4" d="M86.73,264.62c-1.88-1.63-1.1,1.49,0,0Z"/><path class="cls-4" d="M89,101.18a1.73,1.73,0,0,0-2.32,0C86.86,103.07,88.78,102.51,89,101.18Z"/><path class="cls-4" d="M87.19,354.24c1.45,1.31,2.84-.25,3.25-1.4C89.09,351.63,87.69,353.19,87.19,354.24Z"/><path class="cls-4" d="M71.4,162c.75,1,2.51,1.26,2.32-.93C72.57,161,71.47,161,71.4,162Z"/><path class="cls-4" d="M74.65,378.85v1.86c1.49.41,1.45-.71,1.86-1.39C75.88,379.17,75.62,378.65,74.65,378.85Z"/><path class="cls-4" d="M79.29,257.19a1.71,1.71,0,0,0,.93,2.79C80.94,259.27,81.05,256.79,79.29,257.19Z"/><path class="cls-4" d="M90,366.31v.93h1.39C91.43,366.41,90.91,366.15,90,366.31Z"/><path class="cls-4" d="M77.9,328.24c0,.28-.07.55-.46.46-.14,1.22.64,1.53,1.86,1.4C79.43,328.88,79.12,328.09,77.9,328.24Z"/><path class="cls-4" d="M101.12,405.32c-.58,1.34-.24,2.12,1.39,2.32C103.09,406.29,102.75,405.52,101.12,405.32Z"/><path class="cls-4" d="M71.87,380.7a2.19,2.19,0,0,1,1.39.47v-1.4h-.93C72.33,380.25,72,380.33,71.87,380.7Z"/><path class="cls-4" d="M98.34,400.21c-.45,1.7,2.28,1.84,2.32.46A3,3,0,0,0,98.34,400.21Z"/><path class="cls-4" d="M93.23,252.08c1.45,1.52.78-1.64,0,0Z"/><path class="cls-4" d="M95.55,439.68v-.93C94.69,437.21,93.28,440.14,95.55,439.68Z"/><path class="cls-4" d="M92.3,413.21c1.93.44.1-1.39,0,0Z"/><path class="cls-4" d="M100.65,143c-1.36-1.75-5-.88-4.64,1.86C97.39,146.15,100.67,145.59,100.65,143Z"/><path class="cls-4" d="M56.08,449.42a2.92,2.92,0,0,0,0,3.25H58.4c.27-1.51-.31-2.16-.46-3.25Z"/><path class="cls-4" d="M38,300.84v-1.39H36.57Q36.45,301,38,300.84Z"/><path class="cls-4" d="M38.43,351c-.12,1.51.55,2.24,1.86,2.32-.51-1.8,1.64-1.65.47-2.79C39.44,350.14,39.55,351.18,38.43,351Z"/><path class="cls-4" d="M40.75,427.6v-1.4H39.36Q38.94,428,40.75,427.6Z"/><path class="cls-4" d="M43.54,200.08c-1.29-3.88-3.45,1.77,0,0Z"/><path class="cls-4" d="M46.32,437.36c1.15,1.81.68-1.54,0,0Z"/><path class="cls-4" d="M35.18,358a1.28,1.28,0,0,0,.93,1.39C36.06,358.62,36.17,357.74,35.18,358Z"/><path class="cls-4" d="M27.75,329.63c2.22-.51,2.57-2.57,4.64-.93a8.24,8.24,0,0,1,2.79-6.5C30.23,320.14,27.69,326.68,27.75,329.63Z"/><path class="cls-4" d="M36.57,223.76H34.71C34.1,226.12,37.19,226.12,36.57,223.76Z"/><path class="cls-4" d="M32.86,331.49c-.37,2.81,2.13.31,0,0Z"/><path class="cls-4" d="M56.08,294.34c-2.18-1.07-5,.72-7,1.39C49,301.61,57.15,299.64,56.08,294.34Z"/><path class="cls-4" d="M72.33,395.1c-2.59-5.65-7.88,3.86-.93,3.25C72.88,395.63,70.17,395.35,72.33,395.1Z"/><path class="cls-4" d="M64.43,414.14v1.39h.93c0-.46.38-.55.46-.93C65.23,414.58,65.19,414,64.43,414.14Z"/><path class="cls-4" d="M65.36,182.43v.93C66.73,184.39,67,182.55,65.36,182.43Z"/><path class="cls-4" d="M67.69,374.67c0,2.44,2,.48,0,0Z"/><path class="cls-4" d="M64.9,371.88a2.18,2.18,0,0,1,.46-1.4c-.59-.63-2.27-.72-2.32.46C64,371,63.63,372.22,64.9,371.88Z"/><path class="cls-4" d="M53.29,322.2a2.61,2.61,0,0,0-1.86.46c0,1.27.77.93,0,1.85C52.74,324.43,53.41,323.71,53.29,322.2Z"/><path class="cls-4" d="M54.22,367.7c-.13,1.06.11,1.75.93,1.86C55,368.74,55.61,367.24,54.22,367.7Z"/><path class="cls-4" d="M63.51,416.46v-1.39H62.11Q62,416.59,63.51,416.46Z"/><path class="cls-4" d="M52.36,334.27c.73,0,.36,1.18,1.39.93A10.89,10.89,0,0,0,55.61,331,3.19,3.19,0,0,0,52.36,334.27Z"/><path class="cls-4" d="M160.1,461.5c-.18,1.38-1.14,3.36-.46,4.18,2.75.28,1.23-3.72,3.25-4.18C161.42,462,161.83,461.54,160.1,461.5Z"/><path class="cls-4" d="M157.31,477.75h-1.86c.52,1.83-.47,6.63,2.79,7C158.34,481.56,155.44,480.06,157.31,477.75Z"/><path class="cls-4" d="M152.67,503.75c-.67.68-.36,1.47.93,1.4A1.28,1.28,0,0,0,152.67,503.75Z"/><path class="cls-4" d="M175,108.14c-.59,0-.64-.6-1.39-.46C172.84,108.82,175.14,109,175,108.14Z"/><path class="cls-4" d="M110.41,210.3c0,1.09-.8,1.37-.46,2.79a2.58,2.58,0,0,1,.69.32c.48-1,1-2.08,1.45-3.11Z"/><path class="cls-4" d="M171.7,520.47c1.16,1.81.68-1.54,0,0Z"/><path class="cls-4" d="M118.77,162.47c.38-1.17.61-2.49,2.32-2.32,0-1.84-1.81-1.9-3.25-2.32C116.39,159.76,115.14,162.07,118.77,162.47Z"/><path class="cls-4" d="M122,429.92a17.39,17.39,0,0,0-.93,3.25c.69.24,1.17.69,1.86.93C123.91,432.62,124,430.5,122,429.92Z"/><path class="cls-4" d="M116,95.14a1,1,0,1,0-1.86,0Z"/><path class="cls-4" d="M140.59,477.75v.93H142C142,477.85,141.52,477.59,140.59,477.75Z"/><path class="cls-4" d="M126.66,463.36c-5.34.38-.53,8.62,2.79,6C126.27,469.2,126.8,465.4,126.66,463.36Z"/><path class="cls-4" d="M128.06,486.11c-8.46-1.94-5.75,6.93.46,7C125.33,491.33,124.49,488.2,128.06,486.11Z"/><path class="cls-4" d="M423.4,528.37c.83-.28,1.93,1.36,2.32,0C425,527.83,423.76,526.73,423.4,528.37Z"/><path class="cls-4" d="M434.54,566.44Z"/><path class="cls-4" d="M444.29,486.58c.72,1.13,3.51.45,3.25-.93C446.72,484.87,444.14,485,444.29,486.58Z"/><path class="cls-4" d="M416.43,479.61v1.86C418.81,482.07,418.59,479.19,416.43,479.61Z"/><path class="cls-4" d="M447.08,484.25c1.16,1.81.68-1.54,0,0Z"/><path class="cls-4" d="M442.9,480.07H442V481h.93Z"/><path class="cls-4" d="M435.47,497.72c-4.46-.6-.9-4.28.46-5.57C429.52,489.27,431,502.16,435.47,497.72Z"/><path class="cls-4" d="M442,494.93c-.37,1.08-1.49,2.64-.46,3.71,2.28.27,2.34-1.68,2.79-3.25C443.18,495.58,443.29,494.55,442,494.93Z"/><path class="cls-4" d="M409.47,485.64c.07,2.12.38,1.82,0,3.71,1.07,1,1.54-1.19,3.71-.46.14-.91-.63-.92-.93-1.39,1.52-.73.95-1.79,3.25-.93a3,3,0,0,0,.46-2.32C413.37,485.31,412.19,485.2,409.47,485.64Z"/><path class="cls-4" d="M405.29,547.87c-1.21-.8-2.52-1.5-2.79-3.25.93-1.69,2.72-2.54,2.79-5.11C399.28,537.71,398.91,550,405.29,547.87Z"/><path class="cls-4" d="M402,569.23c-.17,1.61-1.09,3,1.4,2.78a3,3,0,0,1,.46-2.32C403,569.8,402.87,569.16,402,569.23Z"/><path class="cls-4" d="M382.07,496.33Z"/><path class="cls-4" d="M31.46,386.28c.66.11.78.76,1.39.93v-1.39C32.31,385.89,31.54,385.73,31.46,386.28Z"/><path class="cls-4" d="M495.84,382.1Z"/><path class="cls-4" d="M498.63,421.1v-1.85C496.25,418.64,496.47,421.52,498.63,421.1Z"/><path class="cls-4" d="M498.63,384.88Z"/><path class="cls-4" d="M492.59,436.89c.69.73,2.07.52,1.86-.93C493.39,435.83,492.7,436.07,492.59,436.89Z"/><path class="cls-4" d="M486.55,171.29c-.14,1.22.64,1.53,1.86,1.39C488.55,171.46,487.77,171.16,486.55,171.29Z"/><path class="cls-4" d="M299.41,549.26c.68,1.54,1.16-1.81,0,0Z"/><path class="cls-4" d="M490.73,418.78v1.39h.93c0-.46.38-.55.46-.93C491.53,419.22,491.48,418.65,490.73,418.78Z"/><path class="cls-4" d="M499.09,403c1.93.45.09-1.39,0,0Z"/><path class="cls-4" d="M508.84,333.34a1,1,0,0,0-.63-1.29c-.06.43-.12.85-.18,1.28A1.63,1.63,0,0,0,508.84,333.34Z"/><path class="cls-4" d="M510.7,205.19c.88-.1,1,.52,1.86.46a2.2,2.2,0,0,1,.46-1.39A1.33,1.33,0,0,0,510.7,205.19Z"/><path class="cls-4" d="M508.84,262.77c-.15.63-.66.89-.46,1.86C511.16,265.23,511,262.78,508.84,262.77Z"/><path class="cls-4" d="M501.41,432.25Z"/><path class="cls-4" d="M514,486.11h.93v-.93H514Z"/><path class="cls-4" d="M507,242.8c-.2-2.47-3.77-2.37-4.94-.52q.41,1.38.79,2.77C504.61,245.39,505,242.87,507,242.8Z"/><path class="cls-4" d="M506.06,390a2.07,2.07,0,0,0,2.32-2.32C506.22,387.07,505,388.76,506.06,390Z"/><path class="cls-4" d="M505.59,378.39h.93v-.93h-.93Z"/><path class="cls-4" d="M463.8,438.28Z"/><path class="cls-4" d="M449.31,153.29l.09-.11a3.2,3.2,0,0,0-1-.76Z"/><path class="cls-4" d="M452.19,525.11c.28,0,.55.07.46.46h.93C454.31,524.43,452,524.21,452.19,525.11Z"/><path class="cls-4" d="M452.65,507c-3.31-.91-.8-3.76-1.39-4.64.59.64,2.77.81,2.78-.46C448.81,498.87,447.3,508.81,452.65,507Z"/><path class="cls-4" d="M477.27,448.5q-.13,1.52,1.39,1.4C479,448.64,477.7,449,477.27,448.5Z"/><path class="cls-4" d="M466.58,448.5h.93v-.93h-.93Z"/><path class="cls-4" d="M474.94,462.89v1.4C476.3,465,476.3,462.21,474.94,462.89Z"/><path class="cls-4" d="M336.1,522.79c-.63-.15-.89-.66-1.86-.46C333.89,523.91,336,524.14,336.1,522.79Z"/><path class="cls-4" d="M335.63,548.33c1.93.44.1-1.39,0,0Z"/><path class="cls-4" d="M338,514V513C337.1,511.5,335.69,514.43,338,514Z"/><path class="cls-4" d="M297.55,510.74c.13,4.94,3,8.26,7.89,8.8-.34-2.15-3.9-3.51-3.25-5.11a2,2,0,0,0,1.86.93,11.66,11.66,0,0,1-2.47-4.58h-.66C299.8,510.79,298.68,510.76,297.55,510.74Z"/><path class="cls-4" d="M305.91,536.72c.37,2.55,2.52,4.81,5.11,3.71-.93-1.67,0-2.25.46-3.71C310.09,535.67,307.5,536.52,305.91,536.72Z"/><path class="cls-4" d="M311.95,571.55c1.79,2.42,2.4-1.85,0,0Z"/><path class="cls-4" d="M320.77,512.57c.73,0,1.61.06,1.4-.93A1.28,1.28,0,0,0,320.77,512.57Z"/><path class="cls-4" d="M314.27,558.08c1.93.44.09-1.39,0,0Z"/><path class="cls-4" d="M375.57,507.93c1.45,1.52.78-1.64,0,0Z"/><path class="cls-4" d="M344.45,525.11Z"/><path class="cls-4" d="M351.42,515.83c-.13,1.21-.16,2.32,1.39,1.85C352.94,516.47,352.64,515.69,351.42,515.83Z"/><path class="cls-4" d="M357.46,569.23c2.46.5.55-1.41,0,0Z"/><path class="cls-4" d="M354.21,557.15c1.45,1.52.78-1.65,0,0Z"/><path class="cls-4" d="M64,187.54c.09-1-.38-1.48-1.39-1.39Q62.16,188,64,187.54Z"/><path class="cls-4" d="M407.15,68.21V66.82h-1.39Q405.33,68.62,407.15,68.21Z"/><path class="cls-4" d="M409,46.38c1.45,1.52.78-1.64,0,0Z"/><path class="cls-4" d="M403.43,23.63A1.4,1.4,0,0,0,401.11,25C402.44,25.12,403.64,25.09,403.43,23.63Z"/><path class="cls-4" d="M398.79,60.32c.08-1-.38-1.48-1.39-1.39Q397,60.73,398.79,60.32Z"/><path class="cls-4" d="M443.83,59.85c-.52.56-1.32.84-.93,2.32C445.21,62.42,445.73,60.32,443.83,59.85Z"/><path class="cls-4" d="M28.68,343.09c-.78-2.16.56-2.56.46-5.11C25.91,336,24.4,343.54,28.68,343.09Z"/><path class="cls-4" d="M414.57,65.42c-.83-.06-1.09.46-.93,1.39.88-.5,1.12-1.61,3.25-1.86-1.4-.89-2.43-5.38,0-6,1.09.14.86,1.61,2.32,1.39.58-1.5-1.5-.35-.93-1.86.28.27,2.2,1.09,2.32,0-4.53-6.11-11.11.41-7.9,7C413.58,65.87,414.27,64,414.57,65.42Z"/><path class="cls-4" d="M365.35,87.25c-.49-2.66.81-3.53.93-5.57a2.19,2.19,0,0,1-1.39-.46C362.75,82.16,363.32,86.59,365.35,87.25Z"/><path class="cls-4" d="M366.74,96.07c-.83-.41-1.18-1.3-2.79-.93a3.62,3.62,0,0,0,0,3.71C365.87,98.91,365.17,96.35,366.74,96.07Z"/><path class="cls-4" d="M387.64,97.46c.26-3-3.13.4,0,0Z"/><path class="cls-4" d="M394.14,66.82q.13-1.52-1.39-1.39Q392.33,67.23,394.14,66.82Z"/><path class="cls-4" d="M375.1,101.64c.47-1.55-.64-1.52-1.86-1.39C373.11,101.47,373.89,101.77,375.1,101.64Z"/><path class="cls-4" d="M573.85,345.88c-2.3-4.2-7.43,2-2.32,2.79C571.94,347.37,573.84,347.56,573.85,345.88Z"/><path class="cls-4" d="M571.07,410.89c.06,2,1.89,2.17,2.32.46A3,3,0,0,0,571.07,410.89Z"/><path class="cls-4" d="M573.39,371.42c-2.64-.19-.68,1.76,0,0Z"/><path class="cls-4" d="M569.68,214.94c1.45,1.52.78-1.64,0,0Z"/><path class="cls-4" d="M572.46,314.77a3.05,3.05,0,0,0-3.25,2.79C570.19,316.53,572.65,317,572.46,314.77Z"/><path class="cls-4" d="M522.31,364Z"/><path class="cls-4" d="M553.89,210.76c-.74,1.3,2,1.29,1.86.47C555.12,211.08,554.86,210.56,553.89,210.76Z"/><path class="cls-4" d="M518.59,458.72c.28,0,.55.07.46.46H520C520.71,458,518.41,457.81,518.59,458.72Z"/><path class="cls-4" d="M531.6,404.39c1.45,1.51.78-1.65,0,0Z"/><path class="cls-4" d="M566.89,278.55A2.62,2.62,0,0,0,565,279a2.18,2.18,0,0,0,.46,1.39C566.72,280.55,567,279.77,566.89,278.55Z"/><path class="cls-4" d="M519.06,393.24c0,1.28.73,4.18,1.86,2.79-1.75-1.6.18-1.58.46-3.25A3,3,0,0,0,519.06,393.24Z"/><path class="cls-4" d="M557.14,202.4c1.93.45.09-1.39,0,0Z"/><path class="cls-4" d="M560.39,397c1.93.44.09-1.39,0,0Z"/><path class="cls-4" d="M557.14,242.33a3,3,0,0,0,2.32.46C559.91,241.09,557.18,241,557.14,242.33Z"/><path class="cls-4" d="M557.14,399.28a2,2,0,0,0,.93,1.85c0-.92,1.27-.59.93-1.85Z"/><path class="cls-4" d="M568.28,358.42c-.59,0-.64-.59-1.39-.46C566.17,359.09,568.47,359.32,568.28,358.42Z"/><path class="cls-4" d="M566.89,419.25c.62.6,1.73.61,1.86-.46C568.05,418.86,567,418.62,566.89,419.25Z"/><path class="cls-4" d="M561.78,440.61Z"/><path class="cls-4" d="M567.35,183.83c1.27-1.72-1.3-3.05-2.79-1.86v1.39C565.12,183.9,566.21,183.89,567.35,183.83Z"/><path class="cls-4" d="M563.64,431.32c.66.11.78.76,1.39.93v-1.4C564.48,430.93,563.71,430.77,563.64,431.32Z"/><path class="cls-4" d="M566.89,423a2.59,2.59,0,0,0,.46,1.85c.88.1,1-.52,1.86-.46C569.42,422.9,568.22,422.87,566.89,423Z"/><path class="cls-4" d="M589,346.77l-.2-.11Z"/><path class="cls-4" d="M576.18,298.52c1.74,1,3.69-1.09,5.11-1.86C579.35,297.51,576.48,295.5,576.18,298.52Z"/><path class="cls-4" d="M13.82,216.33h0l-.41,1.37a2,2,0,0,0,.42,0Z"/><path class="cls-4" d="M589.64,384Z"/><path class="cls-4" d="M588.46,346.47l-.21-.12Z"/><path class="cls-4" d="M574.32,429.46c-.12-.76.4-.89.75-1.19l.12-.26C574,426.67,572.41,429.16,574.32,429.46Z"/><path class="cls-4" d="M599.4,318.95c-1.56-1.41-1.41,1.71,0,0Z"/><path class="cls-4" d="M334.7,3.2s0-.05,0-.08L333.28,3C333.81,3.36,333.93,4,334.7,3.2Z"/><path class="cls-4" d="M226.53,10.93l-.22.06a.87.87,0,0,0,.2.1A.76.76,0,0,0,226.53,10.93Z"/><path class="cls-4" d="M310.09,2.27c0-.28,0-.55,0-.81l-1,0A2.13,2.13,0,0,0,310.09,2.27Z"/><path class="cls-4" d="M578,403H579v-.93H578Z"/><path class="cls-4" d="M590.11,264.16c-1.16-.79-2.28-1.62-3.71-.93v1.85A2.55,2.55,0,0,0,590.11,264.16Z"/><path class="cls-4" d="M598.47,290.63c1.17-.38,2.49-.61,2.32-2.32C599,288.08,597.53,289.55,598.47,290.63Z"/><path class="cls-4" d="M590.57,347.74c-2.22-1.29-1.13,1.52,0,0Z"/><path class="cls-4" d="M581.28,378.39Z"/><path class="cls-4" d="M592.9,318Z"/><path class="cls-4" d="M590.57,346.34c1.23,0,2.73.26,2.78-.93C592,345.32,591,345.53,590.57,346.34Z"/><path class="cls-4" d="M593.82,296.66c.63.15.89.66,1.86.46C596.42,295.83,593.68,295.84,593.82,296.66Z"/><path class="cls-4" d="M592,313.38c1.93.44.09-1.39,0,0Z"/><path class="cls-4" d="M577.57,256.26c1.93.44.09-1.39,0,0Z"/><path class="cls-4" d="M470.94,178.74l.23.32A.44.44,0,0,0,470.94,178.74Z"/><path class="cls-4" d="M465.66,152.25c1.45,1.52.78-1.64,0,0Z"/><path class="cls-4" d="M487.48,167.11c.15-.63.66-.89.46-1.86h-1.39C486.42,166.31,486.67,167,487.48,167.11Z"/><path class="cls-4" d="M552,169.43v1.39c1.06.13,1.75-.11,1.86-.93C553.26,169.75,553,169.24,552,169.43Z"/><path class="cls-4" d="M507.45,361.67h-1.39v1.4C507.31,363.38,507,362.1,507.45,361.67Z"/><path class="cls-4" d="M456.83,131.36c.48-2.47,3.68-4.66,5.11-4.64C458.27,126,455.34,128.46,456.83,131.36Z"/><path class="cls-4" d="M450.33,58.46q-2.48-.16-2.32,2.32Q450.49,60.94,450.33,58.46Z"/><path class="cls-4" d="M457.3,48.24h-.93v.93h.93Z"/><path class="cls-4" d="M535.31,376.53h.93v-.93h-.93Z"/><path class="cls-4" d="M534.38,215.87h.93v-.93h-.93Z"/><path class="cls-4" d="M541.35,417.85a2.19,2.19,0,0,1,.46-1.4h-1.39A1.28,1.28,0,0,0,541.35,417.85Z"/><path class="cls-4" d="M535.77,189.87c-1.12.19-1-.85-2.32-.46v1.85A1.67,1.67,0,0,0,535.77,189.87Z"/><path class="cls-4" d="M551.57,293.87c-2-.14-2.16,1.55-3.25,2.32,1.23,0,2.65.17,3.25-.46C551.52,294.47,552.34,294.8,551.57,293.87Z"/><path class="cls-4" d="M551.57,415.53c1.16,1.81.68-1.54,0,0Z"/><path class="cls-4" d="M548.78,233.51Z"/><path class="cls-4" d="M533.45,401.6c-1.14-2.53.34-2.78,1.4-4.18C531.39,393.64,528.5,401.78,533.45,401.6Z"/><path class="cls-4" d="M542.74,364.92c-.12,1.51.55,2.24,1.86,2.32-.4-1.49.73-1.44.93-2.32C544.44,364.78,543.61,364,542.74,364.92Z"/><path class="cls-4" d="M526,423.43c1.16,1.81.68-1.54,0,0Z"/><path class="cls-4" d="M529.74,185.69c.3.3-.19-.2,0,0Z"/><path class="cls-4" d="M514,113.71c-.07.07.05.37,0,.46C512.66,116.59,516.73,110.94,514,113.71Z"/><path class="cls-4" d="M516.74,340.31c-.74,1.29,2,1.28,1.86.46A2.62,2.62,0,0,1,516.74,340.31Z"/><path class="cls-4" d="M513,123.93c.52,1.8-1.64,1.65-.46,2.79a6.73,6.73,0,0,0,3.25-2.32C515.26,123.86,514.17,123.87,513,123.93Z"/><path class="cls-4" d="M519.52,242.33c-.23-1.46,1-1.81,0-2.78h-1.39C517.27,240.47,517.44,243,519.52,242.33Z"/><path class="cls-4" d="M524.17,189.4c1.45,1.51.78-1.65,0,0Z"/><path class="cls-4" d="M519.06,385.35c.63.15.89.66,1.86.47-.53-1.46.73-1.13.93-1.86C520.57,382.73,519.29,384.13,519.06,385.35Z"/><path class="cls-4" d="M520.92,349.13a2.32,2.32,0,0,0,1.86,2.32c-.34-1.43,1.28-.89.93-2.32A2.27,2.27,0,0,0,520.92,349.13Z"/><path class="cls-4" d="M175.88,128.57v.93h1.4C177.34,128.67,176.82,128.41,175.88,128.57Z"/><path class="cls-4" d="M174.49,114.64a3,3,0,0,0-2.32-.46C171.35,116.26,174.63,115.85,174.49,114.64Z"/><path class="cls-4" d="M201.43,87.25h-.93v.93h.93Z"/><path class="cls-4" d="M182.39,50.56c-2-.11-3.68,0-4.18,1.4C179.52,52.93,182.15,52.13,182.39,50.56Z"/><path class="cls-4" d="M222.32,55.67V54.28h-1.39Q220.8,55.8,222.32,55.67Z"/><path class="cls-4" d="M220.93,70.07h.93c.72-1.14-1.58-1.37-1.39-.46C220.75,69.63,221,69.67,220.93,70.07Z"/><path class="cls-4" d="M100.65,394.64c-.14.63-.66.89-.46,1.85C101.78,396.84,102,394.72,100.65,394.64Z"/><path class="cls-4" d="M69.54,384.88v.93c.28,0,.55.07.46.46h.93c0-.29.07-.55.46-.46v-.93c-.28,0-.55-.07-.46-.46H70C70,384.71,69.94,385,69.54,384.88Z"/><path class="cls-4" d="M68.61,327.31c-.06.06,0,.37,0,.46C67.57,330.55,71,324.94,68.61,327.31Z"/><path class="cls-4" d="M52.83,256.26c-.09-.69-1.12-.43-1.86-.46C50,257.51,53.33,257.89,52.83,256.26Z"/><path class="cls-4" d="M53.29,140.18c1.93.44.09-1.39,0,0Z"/><path class="cls-4" d="M565.39,447.35a.94.94,0,0,0-.34.61Z"/><path class="cls-4" d="M93.23,175.47H92.3v.93h.93Z"/><path class="cls-4" d="M75.58,376.06c1.15,1.81.68-1.54,0,0Z"/><path class="cls-4" d="M69.08,250.23c1.93.44.09-1.39,0,0Z"/><path class="cls-4" d="M22.18,361.2c.68,1.54,1.16-1.81,0,0Z"/><path class="cls-4" d="M26.82,312.45c-1.07-1.08-2.47-.11-2.32,1.39A1.67,1.67,0,0,0,26.82,312.45Z"/><path class="cls-4" d="M22.64,240.48H21.25q-.13,1.52,1.39,1.39Z"/><path class="cls-4" d="M13.35,331.49c-2,.45-4.63.31-4.64,2.78,2.73-1.56,3.49.11,6,.93C13.55,333.2,13,333.29,13.35,331.49Z"/><path class="cls-4" d="M30.54,196.36c0-1.25-1.06-2.23-1.86-1.39C28.54,196.19,29.32,196.5,30.54,196.36Z"/><path class="cls-4" d="M31.46,179.65c-.28-.13-1.79-1.15-1.86,0C29.89,179.78,31.39,180.8,31.46,179.65Z"/><path class="cls-4" d="M18,254.41c-1,1,0,2.36,1.39,2.32C19.48,255.4,19.45,254.2,18,254.41Z"/><path class="cls-4" d="M33.32,246c-.57-2.89,1.05-3.59.93-6C28.9,236.93,27.87,246.79,33.32,246Z"/><path class="cls-4" d="M25.43,237.23c-1.51-.8,1.21-1.21.46-2.79-1.39-.55-1.58-.12-2.79.46C22.83,236.44,24.66,238.27,25.43,237.23Z"/><path class="cls-4" d="M152.67,122.54c2.59-.35,4.7-1.18,5.11-3.72C155.19,116.49,150.56,118.75,152.67,122.54Z"/><path class="cls-4" d="M158.24,110.93v.93h1.39C159.69,111,159.17,110.77,158.24,110.93Z"/><path class="cls-4" d="M162.88,45A1,1,0,1,0,161,45C162.29,45,162,45.77,162.88,45Z"/><path class="cls-4" d="M161.49,138.32a1.74,1.74,0,0,0,1.86,1.86Q163.67,138,161.49,138.32Z"/><path class="cls-4" d="M165.21,76.57c-.59,0-.64-.6-1.39-.46C163.09,77.25,165.39,77.47,165.21,76.57Z"/><path class="cls-4" d="M153.6,81.21c.41-1.48-.71-1.45-1.39-1.85-.15.62-.66.89-.47,1.85Z"/><path class="cls-4" d="M162,105.82c1.41,1.27-1.27-1.41,0,0Z"/><path class="cls-4" d="M123.87,71.92c.14-1.22-.64-1.53-1.86-1.39C121.88,71.75,122.66,72.05,123.87,71.92Z"/><path class="cls-4" d="M101.58,83.07c-.19-1.64-1.6-1.72-2.78-.93C95.68,84.22,102,86.68,101.58,83.07Z"/><path class="cls-4" d="M108.09,141.11c.55-1.38-2-2-2.32-.93C106.65,140.38,106.6,141.51,108.09,141.11Z"/><path class="cls-4" d="M119.23,121.61c1.84-2.17-2-3.25-1.86-.46C118.25,121,118.4,121.67,119.23,121.61Z"/><path class="cls-4" d="M149,108.61c-2.27-1.76-1.71,1.63,0,0Z"/><path class="cls-4" d="M128.52,435c.37-1.92-.71-2.38-2.32-2.32C126.46,434,126.69,435.31,128.52,435Z"/><path class="cls-4" d="M151.27,153.65c-1.62-1.57-4.92-1-5.11,1.39C148,156.32,150.41,154.84,151.27,153.65Z"/><path class="cls-4" d="M298,7.38c-.5-1.74,1.15-1.32.93-2.79-1.14-1-1-.66-2.79-.46C295.8,5.87,295.27,7.75,298,7.38Z"/><path class="cls-4" d="M292.44,9.7c-.59,0-.64-.59-1.39-.47C290.33,10.38,292.63,10.6,292.44,9.7Z"/><path class="cls-4" d="M286.41,20.38c-.29-2,3.42-3.14,4.64-5.11-3-2.52-7.79-.07-6.5,4.64C285.43,19.81,285.57,20.44,286.41,20.38Z"/><path class="cls-4" d="M292.91,86.78c.58-1.34.24-2.12-1.39-2.32C290.61,85.36,291,87.3,292.91,86.78Z"/><path class="cls-4" d="M292,25c.28,0,.55.07.46.46h.93C294.09,24.35,291.79,24.12,292,25Z"/><path class="cls-4" d="M318.45,68.21c-.23-1.46.84-1.64.46-3.25.8-.75,2.87-.23,3.25-1.39-.8-1.25-4.65-1.27-6-.46C316.87,65.16,315.45,67.77,318.45,68.21Z"/><path class="cls-4" d="M318.91,8.31Z"/><path class="cls-4" d="M259.94,60.32c-.57-3.2-4.8-1.41-4.18,1.86C257.49,61.89,259.1,61.49,259.94,60.32Z"/><path class="cls-4" d="M238.58,45.92c-.12-1.36,1-1.43.93-2.78-1.51.12-2.24-.55-2.32-1.86.63-1.22.55-3.17.93-4.64C232.65,32.45,233.26,47.26,238.58,45.92Z"/><path class="cls-4" d="M240,39.88c.13-1.21-.17-2-1.39-1.86C238.5,39.19,239.29,39.48,240,39.88Z"/><path class="cls-4" d="M238.11,40.35c1,1.16,1.57,2.64,2.79,2.32a2.27,2.27,0,0,1-.93-2.32Z"/><path class="cls-4" d="M244.61,33.85c-.63-.15-.89-.66-1.86-.47C242.4,35,244.53,35.2,244.61,33.85Z"/><path class="cls-4" d="M272,93.28a2,2,0,0,0-.1.41l1.42-.2A1.28,1.28,0,0,0,272,93.28Z"/><path class="cls-4" d="M268.3,45.92c1.93.44.09-1.39,0,0Z"/></g></g></svg>